<?xml version="1.0" encoding="UTF-8" standalone="no"?>
<!-- Created with Inkscape (http://www.inkscape.org/) -->

<svg
   xmlns:dc="http://purl.org/dc/elements/1.1/"
   xmlns:cc="http://creativecommons.org/ns#"
   xmlns:rdf="http://www.w3.org/1999/02/22-rdf-syntax-ns#"
   xmlns:svg="http://www.w3.org/2000/svg"
   xmlns="http://www.w3.org/2000/svg"
   xmlns:sodipodi="http://sodipodi.sourceforge.net/DTD/sodipodi-0.dtd"
   xmlns:inkscape="http://www.inkscape.org/namespaces/inkscape"
   width="100"
   height="100"
   viewBox="0 0 99.999997 99.999997"
   id="svg3654"
   version="1.1"
   inkscape:version="0.91 r13725"
   sodipodi:docname="drag.svg">
  <defs
     id="defs3656" />
  <sodipodi:namedview
     id="base"
     pagecolor="#ffffff"
     bordercolor="#666666"
     borderopacity="1.0"
     inkscape:pageopacity="0.0"
     inkscape:pageshadow="2"
     inkscape:zoom="2.8"
     inkscape:cx="124.52315"
     inkscape:cy="172.49058"
     inkscape:document-units="px"
     inkscape:current-layer="layer1"
     showgrid="false"
     units="px"
     inkscape:window-width="1080"
     inkscape:window-height="1896"
     inkscape:window-x="1920"
     inkscape:window-y="24"
     inkscape:window-maximized="1" />
  <metadata
     id="metadata3659">
    <rdf:RDF>
      <cc:Work
         rdf:about="">
        <dc:format>image/svg+xml</dc:format>
        <dc:type
           rdf:resource="http://purl.org/dc/dcmitype/StillImage" />
        <dc:title></dc:title>
      </cc:Work>
    </rdf:RDF>
  </metadata>
  <g
     inkscape:label="Layer 1"
     inkscape:groupmode="layer"
     id="layer1"
     transform="translate(0,-952.36223)">
    <g
       id="g22"
       transform="matrix(0.39614146,0,0,-0.39614146,92.92095,1020.3648)">
      <path
         d="m 0,0 c 0,-6.354 -5.153,-11.508 -11.51,-11.508 l -184.254,0 c -6.355,0 -11.509,5.154 -11.509,11.508 l 0,119.498 c 0,6.355 5.154,11.507 11.509,11.507 l 184.254,0 C -5.153,131.005 0,125.853 0,119.498 L 0,0 Z"
         style="fill:#707070;fill-opacity:1;fill-rule:nonzero;stroke:none"
         id="path24"
         inkscape:connector-curvature="0" />
    </g>
    <path
       d="m 89.070815,1021.095 -74.410424,0 0,-48.94335 74.410424,0 0,48.94335 z"
       style="fill:#fffffb;fill-opacity:1;fill-rule:nonzero;stroke:none"
       id="path26"
       inkscape:connector-curvature="0" />
    <g
       id="g46"
       transform="matrix(0.39614146,0,0,-0.39614146,44.507354,1039.2476)">
      <path
         d="m 0,0 42.091,0 c 4.248,4.009 17.682,18.285 17.682,38.422 l 0,27.968 c 0,3.61 -2.499,4.573 -3.974,4.573 -2.329,0 -2.678,-3.438 -2.678,-5.489 0,-2.814 -2.282,-5.097 -5.097,-5.097 -2.815,0 -5.096,2.283 -5.096,5.097 0,6.243 -1.502,10.278 -3.826,10.278 -1.067,0 -4.314,0 -4.314,-7.894 0,-2.814 -2.28,-5.097 -5.097,-5.097 -2.813,0 -5.096,2.283 -5.096,5.097 0,12.207 -3.26,12.207 -4.486,12.207 -1.407,0 -5.147,0 -5.147,-11.595 0,-2.815 -2.282,-5.096 -5.097,-5.096 -2.815,0 -5.097,2.281 -5.097,5.096 0,4.63 -0.014,12.017 -0.026,19.807 -0.014,8.706 -0.03,17.916 -0.03,24.361 0,4.431 -2.832,6.003 -5.259,6.003 -2.563,0 -5.303,-1.68 -5.303,-6.394 l 0,-53.83 c 0,-2.814 -2.281,-5.097 -5.097,-5.097 -4.154,0 -10.113,2.235 -14.373,8.504 -0.95,1.396 -3.513,4.704 -6.821,5.299 -0.417,0.075 -0.906,0.114 -1.417,0.114 -2.944,0 -6.532,-1.321 -7.351,-3.306 0.141,-1.223 3.773,-4.376 5.948,-6.267 C -27.97,51.59 -18.41,43.287 -18.303,28.476 -17.307,18.586 -6.238,3.696 0,0 m 44.037,-10.196 -45.276,0 c -0.724,0 -1.438,0.156 -2.096,0.451 -9.725,4.391 -23.933,23.748 -25.142,37.527 -0.012,0.149 -0.018,0.298 -0.018,0.447 0,10.317 -6.987,16.385 -13.15,21.739 -5.48,4.759 -11.147,9.682 -9.051,16.849 0.019,0.06 0.038,0.121 0.058,0.181 2.388,7.168 10.53,10.433 17.08,10.433 1.121,0 2.204,-0.094 3.218,-0.275 6.861,-1.232 11.37,-6.543 13.447,-9.6 0.279,-0.408 0.563,-0.776 0.85,-1.109 l 0,45.8 c 0,10.89 7.796,16.588 15.496,16.588 7.491,0 15.451,-5.677 15.451,-16.197 0,-6.168 0.016,-14.873 0.031,-23.242 1.831,0.66 3.641,0.862 5.174,0.862 5.028,0 8.979,-2.216 11.475,-6.419 2.308,1.468 4.945,2.106 7.518,2.106 1.543,0 7.139,-0.427 10.778,-6.296 1.839,1.017 3.883,1.508 5.919,1.508 6.964,0 14.167,-5.524 14.167,-14.767 l 0,-27.968 C 69.966,9.66 48.17,-8.309 47.242,-9.059 c -0.906,-0.735 -2.039,-1.137 -3.205,-1.137"
         style="fill:#3d3d3d;fill-opacity:1;fill-rule:nonzero;stroke:none"
         id="path48"
         inkscape:connector-curvature="0" />
    </g>
    <g
       id="g50"
       transform="matrix(0.39614146,0,0,-0.39614146,44.49883,1039.2476)">
      <path
         d="m 0,0 42.092,0 c 4.249,4.009 17.682,18.285 17.682,38.422 l 0,27.968 c 0,3.61 -2.499,4.573 -3.973,4.573 -2.331,0 -2.679,-3.438 -2.679,-5.489 0,-2.814 -2.281,-5.097 -5.097,-5.097 -2.814,0 -5.096,2.283 -5.096,5.097 0,6.243 -1.501,10.278 -3.825,10.278 -1.067,0 -4.312,0 -4.312,-7.894 0,-2.814 -2.283,-5.097 -5.099,-5.097 -2.815,0 -5.097,2.283 -5.097,5.097 0,12.207 -3.258,12.207 -4.486,12.207 -1.406,0 -5.146,0 -5.146,-11.595 0,-2.815 -2.282,-5.096 -5.098,-5.096 -2.814,0 -5.096,2.281 -5.096,5.096 0,4.63 -0.012,12.017 -0.026,19.807 -0.015,8.706 -0.032,17.916 -0.032,24.361 0,4.431 -2.832,6.003 -5.258,6.003 -2.562,0 -5.302,-1.68 -5.302,-6.394 l 0,-53.83 c 0,-2.814 -2.281,-5.097 -5.096,-5.097 -4.156,0 -10.115,2.235 -14.376,8.504 -0.95,1.396 -3.51,4.704 -6.82,5.299 -0.416,0.075 -0.904,0.114 -1.416,0.114 -2.944,0 -6.531,-1.321 -7.351,-3.306 0.139,-1.223 3.772,-4.376 5.948,-6.267 6.991,-6.074 16.551,-14.377 16.657,-29.188 C -17.304,18.586 -6.236,3.696 0,0"
         style="fill:#ffffff;fill-opacity:1;fill-rule:nonzero;stroke:none"
         id="path52"
         inkscape:connector-curvature="0" />
    </g>
    <g
       id="g54"
       transform="matrix(0.39614146,0,0,-0.39614146,73.026053,984.34633)">
      <path
         d="m 0,0 c -2.173,-1.789 -2.484,-5.003 -0.695,-7.175 l 2.327,-2.828 -28.297,0 2.292,2.918 c 1.741,2.213 1.355,5.417 -0.857,7.156 -2.214,1.74 -5.418,1.355 -7.158,-0.858 l -8.974,-11.42 c -1.48,-1.881 -1.451,-4.541 0.071,-6.389 l 8.977,-10.904 c 1.789,-2.174 5.001,-2.484 7.173,-0.696 1.225,1.008 1.858,2.467 1.858,3.938 0,1.14 -0.38,2.288 -1.162,3.237 l -2.326,2.826 28.295,0 -2.29,-2.915 c -1.741,-2.216 -1.357,-5.419 0.856,-7.157 2.214,-1.741 5.418,-1.356 7.158,0.857 l 8.975,11.42 c 0.727,0.926 1.089,2.038 1.089,3.15 0,1.15 -0.388,2.3 -1.162,3.239 L 7.175,-0.696 C 5.386,1.477 2.174,1.788 0,0"
         style="fill:#3d3d3d;fill-opacity:1;fill-rule:nonzero;stroke:none"
         id="path56"
         inkscape:connector-curvature="0" />
    </g>
  </g>
</svg>
